<svg id="Layer_1" data-name="Layer 1" xmlns="http://www.w3.org/2000/svg" viewBox="0 0 512 512"><defs><style>.cls-1{fill:#141f38;}</style></defs><title>stopwatch-glyph</title><path class="cls-1" d="M407,106.62a242.14,242.14,0,0,0-67.3-37.9L353,45.6a20.21,20.21,0,0,1,27.61-7.4L412.5,56.61a20.21,20.21,0,0,1,7.4,27.61Zm64.61,189.8C471.58,415.29,374.87,512,256,512S40.42,415.29,40.42,296.42,137.13,80.84,256,80.84,471.58,177.55,471.58,296.42Zm-175.16,0a40.43,40.43,0,0,0-26.95-38.11V175.16a13.47,13.47,0,0,0-26.95,0v83.15a40.42,40.42,0,1,0,53.89,38.11ZM256,282.95a13.47,13.47,0,1,0,13.47,13.47A13.49,13.49,0,0,0,256,282.95ZM105,106.62a242.14,242.14,0,0,1,67.3-37.9L159,45.6a20.21,20.21,0,0,0-27.61-7.4L99.5,56.61a20.21,20.21,0,0,0-7.4,27.61Zm204.86-46.7v-33A27,27,0,0,0,282.95,0H229.05a27,27,0,0,0-26.95,26.95v33a244.28,244.28,0,0,1,107.79,0Z"/></svg>
